<?xml version="1.0" encoding="iso-8859-1"?>
<!-- Generator: Adobe Illustrator 19.0.0, SVG Export Plug-In . SVG Version: 6.00 Build 0)  -->
<svg version="1.1" id="Capa_1" xmlns="http://www.w3.org/2000/svg" xmlns:xlink="http://www.w3.org/1999/xlink" x="0px" y="0px"
	 viewBox="0 0 100 100" style="enable-background:new 0 0 100 100;" xml:space="preserve">
<g id="map2_1_">
	<g>
		<path style="fill-rule:evenodd;clip-rule:evenodd;" d="M99.837,24.927c-0.384-1.412-1.361-2.22-2.386-2.981
			c-1.188-0.704-1.979-1.799-3.284-2.388c-0.62-0.818-2.178-1.299-2.684-1.786c-0.251-0.243-0.251-0.089-0.597-0.298
			c-1.18-0.717-2.229-1.647-3.578-2.088c-1.875-1.803-4.2-3.154-6.261-4.771c-1.219-0.57-2.331-1.248-3.28-2.085
			c-1.249-0.647-1.595-2.185-3.282-2.389c-0.021-0.181-0.046-0.351-0.297-0.297c-0.404,0.093-0.573,0.423-1.193,0.297
			c-2.243,1.339-3.829,3.33-5.965,4.771c-2.608,1.669-5.212,3.338-7.751,5.071c-1.345,0.748-2.337,1.84-3.878,2.386
			c-0.358,0.736-1.027,1.167-1.792,1.49c-0.636,0.302-1.109,1.54-1.788,0.894c-3.747-1.62-6.734-4.004-10.139-5.962
			c-1.333-1.354-3.595-1.773-5.073-2.983c-2.14-0.643-3.577-1.987-6.261-2.089c-1.904-0.117-2.732,0.852-4.474,0.897
			c-7.521,5.003-16.66,8.392-24.449,13.124c-0.405,1.085-0.387,2.595-1.196,3.279c-0.4,4.678-0.2,9.561,0,14.315
			c0.564,13.413-0.998,28.769,0.895,42.642c0.171,2.315-0.359,5.332,0.302,7.159c0.078,0.614,0.793,0.597,1.19,0.894
			c0.739-0.388,1.446,0.667,1.489,0c0.681,0.81,0.537,2.448,2.386,2.09c1.895,0.302,2.284-0.901,3.283-1.495
			c0.922-0.669,1.715-1.461,2.385-2.381c1.902-1.281,3.319-3.043,5.067-4.476c1.679-1.502,3.317-3.047,5.075-4.473
			c0.896-0.691,1.852-1.327,2.682-2.086c1.21-0.379,1.729-1.457,2.982-1.793c4.124,2.039,7.582,4.742,11.631,6.861
			c1.918,1.161,3.854,2.309,5.365,3.877c1.163,0.33,2.159,0.823,2.981,1.487c0.877-0.075,0.919,0.677,1.793,0.601
			c-0.137,0.931,0.636,0.95,1.485,0.893c2.289-0.898,4.013-2.354,5.672-3.877c1.884-1.293,3.782-2.575,5.366-4.175
			c2.329-0.854,3.394-2.967,5.667-3.874c0.668-0.928,2.005-1.177,2.683-2.091c1.049-0.54,1.729-1.447,2.982-1.788
			c4.03,2.63,6.829,6.49,10.44,9.543c1.033,0.555,1.375,1.797,2.681,2.087c0.809,0.881,1.38,2.002,2.685,2.386
			c0.976,0.712,1.002,2.376,2.684,2.386c1.123,0.565,1.366,2.015,3.281,1.789c1.159-0.561,1.513-1.516,1.789-2.983
			c0.289-1.536-0.219-3.223,0-4.771c0.481-1.109,0.969-2.213,1.194-3.579c1.588-13.224,0.507-29.11,1.192-43.242
			c0.538-2.006,0.283-4.713,0.301-7.157C99.847,29.274,100.198,26.782,99.837,24.927z M6.491,89.344
			c-0.153-0.156,0.219-0.382,0.301-0.296C6.944,89.199,6.576,89.426,6.491,89.344z M93.572,40.138
			c-0.74,13.356,0.096,28.575-0.599,42.347c-3.974-1.69-6.856-4.473-10.437-6.562c-3.889-1.679-6.193-4.938-10.438-6.262
			c-2.515,0.464-3.714,2.25-5.665,3.278c-1.459,1.424-3.452,2.315-4.767,3.879c-3.615,2.253-6.61,5.121-9.844,7.753
			c-1.15-0.238-1.326-1.457-2.086-2.086c-0.543-0.851-1.699-1.089-2.089-2.086c-2.372-1.013-3.933-2.829-6.561-3.58
			c-2.265-1.116-4.412-2.348-6.862-3.281c-0.686-0.9-1.866-1.314-2.383-2.387c-0.932-0.558-1.644-1.338-2.984-1.489
			c-1.965-0.181-3.161,0.415-4.173,1.192c-0.514,1.175-2.168,1.212-2.683,2.387c-1.072,0.612-1.609,1.769-2.687,2.385
			c-0.809,0.88-1.378,1.999-2.682,2.386c-1.481,1.901-3.487,3.271-4.773,5.365c-0.967,0.724-1.562,1.82-2.388,2.684
			c-0.199,0.694-0.985,0.802-1.186,1.492c-0.35,0.087-0.864,1.691-0.899,0.303c0.862-1.174-0.36-2.812-0.297-4.178
			c-0.315-18.369-0.866-36.51-1.787-54.275c-0.065-0.959,1.061-0.726,1.49-1.192c0.446-0.349,1.219-0.371,1.493-0.896
			c1.278-0.411,1.961-1.417,3.276-1.789c2.151-1.234,4.002-2.759,6.263-3.876c1.953-1.428,4.611-2.149,6.562-3.58
			c1.505-0.182,1.853-1.524,3.58-1.489c0.976-0.614,1.873-1.31,2.983-1.789c3.021,2.244,6.458,4.076,9.542,6.26
			c1.52,1.163,3.369,2,4.772,3.28c1.757,0.825,2.767,2.402,4.771,2.982c2.842-0.34,4.756-1.607,6.559-2.982
			c1.875-1.308,3.897-2.465,5.668-3.875c3.967-2.293,7.155-5.373,11.033-7.753c0.22-0.279,0.54-0.455,0.897-0.6
			c1.792,1.489,3.333,3.227,5.663,4.176c2.002,1.282,3.971,2.591,6.265,3.578c1.078,1.505,2.673,2.495,4.175,3.58
			c1.264,1.221,2.577,2.389,4.175,3.28C94.186,31.051,93.825,35.54,93.572,40.138z M77.169,32.683
			c-1.665-1.714-2.065-4.69-4.173-5.965c-1.804-0.014-2.061,1.52-2.388,2.982c0.187,1.999,1.273,3.1,1.788,4.774
			c-1.664,0.717-3.556,1.212-5.964,1.192c-0.769,1.022-2.482,1.095-2.386,2.98c0.451,0.551,0.659,0.962,1.495,1.193
			c0.79,0.221,2.052-0.166,2.978,0c1.859-0.527,3.625-1.147,5.669-1.49c1.416,1.166,2.012,3.152,2.98,4.771
			c1.11,1.475,1.354,3.816,4.473,3.28c0.351-0.547,0.781-1.009,1.193-1.49c-0.503-3.274-2.523-5.033-3.578-7.754
			c1.641-0.15,2.66-0.921,4.177-1.193c1.397-0.387,2.681-0.898,2.683-2.683C85.121,29.187,80.026,32.491,77.169,32.683z
			 M71.803,39.542c-1.216,1.409-4.481,2.224-3.283,5.067c1.424,0.744,2.202-0.709,3.283-1.193c0.859-0.83,2.17-1.208,1.788-3.279
			C72.966,39.966,72.74,39.399,71.803,39.542z M33.035,39.839c-1.858,1.182-6.143,2.591-4.179,5.668
			c1.91,0.119,2.763-0.821,3.583-1.789c1.405-0.385,1.987-1.591,2.384-2.984C34.341,40.321,34.091,39.678,33.035,39.839z
			 M41.086,46.996c-0.064-0.726-0.815-1.345-1.194-1.788c-0.472-0.551-0.868-1.456-1.789-1.489c-1.02-0.131-0.897,0.891-1.492,1.192
			c0.18,1.609,1.28,2.3,1.793,3.578c0.963,0.926,1.246,2.527,2.979,2.684c0.066-0.234,0.25-0.346,0.6-0.297
			C43.035,49.737,42.073,47.79,41.086,46.996z M61.666,48.786c-0.187,1.109-1.224,1.365-0.897,2.982
			c0.334,0.062,0.464,0.329,0.596,0.597c1.429,0.613,2.602-0.751,3.58-1.491c1.07-0.919,2.276-1.698,2.382-3.578
			C65.545,45.066,63.018,47.831,61.666,48.786z M23.79,47.593c-1.611,1.374-4.062,1.903-4.178,4.772
			c1.162,1.372,2.893-0.014,3.88-0.597c0.733-1.152,2.054-1.722,2.087-3.58C25.048,47.925,24.821,47.355,23.79,47.593z
			 M58.382,53.557c-0.559-0.237-1.089-0.499-1.791-0.595c-0.047,0.345-0.469,0.323-0.893,0.297
			c-1.068,0.991-2.536,1.972-3.579,2.684c-0.102,0.072-0.215,0.492-0.297,0.597c-0.08,0.096-0.515-0.1-0.601,0
			c-0.111,0.142-0.246,0.777-0.293,0.893c-0.152,0.383-0.382,0.589-0.296,1.193c0.951,2.09,3.715,0.818,4.771-0.296
			c1.072-1.411,3.382-1.589,3.275-4.175C58.448,54.087,58.335,53.905,58.382,53.557z M13.947,57.433
			c0.594,0.3,0.473,1.319,1.492,1.193c1.626-0.557,2.923-1.447,2.982-3.578C16.635,53.535,13.934,55.262,13.947,57.433z
			 M44.071,54.452h-0.598c-0.343,0.353-0.339,1.056-0.3,1.788c0.93,1.494,2.643,4.236,4.77,2.683
			c0.372-1.763-0.651-2.128-1.192-2.979C45.724,55.581,45.754,54.157,44.071,54.452z"/>
	</g>
</g>
<g>
</g>
<g>
</g>
<g>
</g>
<g>
</g>
<g>
</g>
<g>
</g>
<g>
</g>
<g>
</g>
<g>
</g>
<g>
</g>
<g>
</g>
<g>
</g>
<g>
</g>
<g>
</g>
<g>
</g>
</svg>
