<?xml version="1.0" encoding="iso-8859-1"?>
<!-- Generator: Adobe Illustrator 19.0.0, SVG Export Plug-In . SVG Version: 6.00 Build 0)  -->
<svg version="1.1" id="Capa_1" xmlns="http://www.w3.org/2000/svg" xmlns:xlink="http://www.w3.org/1999/xlink" x="0px" y="0px"
	 viewBox="0 0 512 512" style="enable-background:new 0 0 512 512;" xml:space="preserve">
<g>
	<g>
		<path d="M437.016,74.975C388.665,26.627,324.379,0,256,0C187.62,0,123.333,26.628,74.981,74.981S0,187.62,0,256
			s26.628,132.667,74.981,181.02C123.333,485.372,187.62,512,256,512s132.667-26.628,181.02-74.98
			C485.372,388.667,512,324.38,512,256v-0.01c0,0,0,0,0-0.001C511.995,187.609,485.365,123.324,437.016,74.975z M266.039,20.306
			c122.108,5.14,220.504,103.533,225.653,225.644H456.08c-5.092-102.491-87.558-184.958-190.04-190.042V20.306z M245.961,20.306
			v35.602C143.464,60.992,60.992,143.463,55.909,245.961H20.306C25.446,123.844,123.844,25.446,245.961,20.306z M245.961,491.693
			C123.844,486.554,25.446,388.156,20.306,266.039h35.603c5.084,102.491,87.555,184.958,190.051,190.041V491.693z M256,308.535
			c-5.544,0-10.039,4.495-10.039,10.039v117.395c-91.421-5.043-164.896-78.514-169.94-169.93h117.405
			c5.544,0,10.039-4.495,10.039-10.039s-4.496-10.039-10.039-10.039H76.021c5.044-91.422,78.518-164.897,169.94-169.941v117.406
			c0,5.545,4.496,10.039,10.039,10.039c5.544,0,10.039-4.495,10.039-10.039V76.02c91.407,5.044,164.877,78.515,169.93,169.931
			H318.574c-5.544,0-10.039,4.495-10.039,10.039c0,5.545,4.496,10.039,10.039,10.039H435.97
			c-5.039,91.42-78.512,164.896-169.931,169.94V318.574C266.039,313.03,261.544,308.535,256,308.535z M266.039,491.694v-35.612
			c102.494-5.084,184.964-87.555,190.042-190.051h35.612C486.559,388.151,388.159,486.554,266.039,491.694z"/>
	</g>
</g>
<g>
	<g>
		<path d="M397.225,213.045c-9.556-31.463-29.733-59.207-56.815-78.123c-4.546-3.174-10.805-2.063-13.98,2.482
			c-3.173,4.547-2.062,10.805,2.483,13.98c23.409,16.35,40.848,40.322,49.101,67.498c1.316,4.333,5.297,7.124,9.602,7.124
			c0.967,0,1.949-0.141,2.921-0.436C395.841,223.958,398.837,218.351,397.225,213.045z"/>
	</g>
</g>
<g>
	<g>
		<path d="M256,226.214c-16.424,0-29.786,13.362-29.786,29.786c0,16.418,13.362,29.776,29.786,29.776s29.786-13.358,29.786-29.776
			C285.786,239.576,272.424,226.214,256,226.214z M256,265.698c-5.353,0-9.708-4.35-9.708-9.698c0-5.353,4.355-9.708,9.708-9.708
			s9.708,4.355,9.708,9.708C265.708,261.348,261.353,265.698,256,265.698z"/>
	</g>
</g>
<g>
	<g>
		<path d="M306.698,119.467c-12.919,0-12.941,20.078,0,20.078C319.617,139.545,319.639,119.467,306.698,119.467z"/>
	</g>
</g>
<g>
</g>
<g>
</g>
<g>
</g>
<g>
</g>
<g>
</g>
<g>
</g>
<g>
</g>
<g>
</g>
<g>
</g>
<g>
</g>
<g>
</g>
<g>
</g>
<g>
</g>
<g>
</g>
<g>
</g>
</svg>
