<?xml version="1.0" encoding="iso-8859-1"?>
<!-- Generator: Adobe Illustrator 18.0.0, SVG Export Plug-In . SVG Version: 6.00 Build 0)  -->
<!DOCTYPE svg PUBLIC "-//W3C//DTD SVG 1.1//EN" "http://www.w3.org/Graphics/SVG/1.1/DTD/svg11.dtd">
<svg version="1.1" id="Capa_1" xmlns="http://www.w3.org/2000/svg" xmlns:xlink="http://www.w3.org/1999/xlink" x="0px" y="0px"
	 viewBox="0 0 445.979 445.979" style="enable-background:new 0 0 445.979 445.979;" xml:space="preserve">
<path d="M329.116,218.844L232.09,5.854C230.465,2.289,226.908,0,222.99,0s-7.476,2.289-9.1,5.854l-97.027,212.989
	c-1.2,2.633-1.2,5.658,0,8.291l97.027,212.989c1.625,3.566,5.182,5.854,9.1,5.854s7.476-2.289,9.1-5.854l97.027-212.989
	C330.316,224.501,330.316,221.477,329.116,218.844z M196.015,212.989l26.975-151.61l26.974,151.61H196.015z M249.963,232.989
	l-26.974,151.61l-26.975-151.61H249.963z M177.732,212.989h-36.226l59.441-130.482L177.732,212.989z M177.732,232.989
	l23.215,130.482l-59.441-130.482H177.732z M268.246,232.989h36.226l-59.441,130.482L268.246,232.989z M268.246,212.989
	L245.031,82.507l59.441,130.482H268.246z"/>
<g>
</g>
<g>
</g>
<g>
</g>
<g>
</g>
<g>
</g>
<g>
</g>
<g>
</g>
<g>
</g>
<g>
</g>
<g>
</g>
<g>
</g>
<g>
</g>
<g>
</g>
<g>
</g>
<g>
</g>
</svg>
